M48
;Layer_Color=9474304
;FILE_FORMAT=2:5
INCH,LZ
;TYPE=PLATED
T1F00S00C0.01600
T2F00S00C0.02000
T3F00S00C0.02500
T4F00S00C0.03543
T5F00S00C0.04000
T6F00S00C0.04200
T7F00S00C0.04600
T8F00S00C0.04800
T9F00S00C0.05200
T10F00S00C0.05950
T11F00S00C0.12500
;TYPE=NON_PLATED
T12F00S00C0.03937
T13F00S00C0.12795
%
T01
X03177Y00525
X03616Y00922
X03644Y01015
X03155Y00888
X03157Y00671
X02992Y00503
X02818Y00508
X0282Y00131
X02181Y00949
X02134Y01058
X0198754Y00991
X0196Y00872
X01479Y00944
X01363Y00896
X0156Y01074
X0051Y00892
X00394Y01348
X00389Y01554
X0077631Y0146268
Y0142332
X0081568
Y0146268
X00801Y01317
X00952
X00831Y01161
X01437Y01257
X01463Y01581
X01353Y01543
X01319Y02078
X01417Y02125
X0148Y02246
X01505Y0246
X01554Y01999
X01184Y02151
X01107Y01918
X009Y02493
X0172Y02423
X0183Y02586
X01871Y02622
X0205Y02314
X01958Y01996
X01865Y0202
X01802Y01909
X01745Y01922
X01679Y0193
X01843Y01544
X01598Y01444
X02651Y01423
X02614Y01355
X02842Y01281
X02959Y01327
X0293Y01191
X03107Y01646
X03036Y0187
X02999Y02026
X02876Y01992
X02875Y02099
X028085Y021465
X02782Y02075
X02789Y02021
X02647Y02035
X02474Y02086
X02507Y02138
X02588Y02207
X02649Y02371
X02695Y02343
X02679Y02447
X02787Y0238
X02782Y02264
X02977Y02447
X03028Y02433
X0301Y02614
X0306976Y02142
X02861Y018
X02624Y01667
X02432Y01954
X02441Y02016
X02378Y01983
X0228Y01902
X02343Y01095
X03219Y01129
X03315Y01487
X033Y01668
X03464Y01895
X03456Y02022
X03625Y01982
X03654Y01854
X0364Y01743
X03833Y02183
X0379Y02226
X03782Y02328
X03787Y02416
X03923Y02419
X03985Y02412
X04025Y02451
X03963Y02294
X03876Y02271
X03794Y02637
X04324Y02491
X04393Y02499
X04407Y02274
X04208Y02139
X04247Y01673
X04276Y01608
X04056Y01515
X0497Y02081
X05014Y02068
X04961Y02203
X05048Y02403
X05054Y02523
X05012Y02647
X04928Y02609
X04869Y02641
X05257Y02102
X05378Y0211
X05346Y02041
X05456Y01968
Y01772
X05452Y01685
X05054Y02786
X04838Y02792
X05166Y02979
X05227Y0298
X04738Y03561
X0496Y04005
X0439Y04099
X04117Y03983
X04206Y03692
X04412Y03703
X03853Y03681
X0385973Y0354427
X0367Y03604
X03603Y03554
X03639Y03299
X03651Y03175
X0366Y03088
X0367Y03005
X03589Y03061
X03491Y0308
X03461Y03104
X03426Y0313
X03367Y03115
X03537Y03182
X03536Y02978
X03499Y02999
X03399Y02903
X0335Y02866
X03301Y02903
X0327Y02937
X03336Y02787
X03648Y02861
X03822Y02848
X03779Y02688
X03896Y02984
X03728Y03138
X03191Y03328
X03264Y03438
X03292Y03528
X03257Y03747
X03325Y03846
X03324Y04025
X03104Y03809
X03012Y03626
X02826Y02851
X02781Y02844
X02716Y0289654
X02678Y02976
X02597Y02902
X02345Y03024
X0186Y02726
X01803Y02666
X01239Y03016
X01301Y03175
X0089169Y0281469
Y0277532
X0085232
Y0281469
X00778Y02854
X00636Y02962
X01021Y03767
X00981Y04003
X0096563Y0410863
Y04148
X01005
Y0410863
X01151Y04006
X00156Y04267
X03891Y04421
X0398Y04496
X04759Y04691
T02
X00384Y01979
X00504Y01899
Y02509
X00384Y02429
T03
X00224Y01943
Y02043
Y02365
Y02465
X00634Y02379
Y02279
Y02179
Y02079
X00734Y02129
Y02029
Y02229
Y02329
T04
X05789Y00619
Y00719
Y00819
Y00919
Y0119617
Y0129617
Y0139617
Y0149617
Y0177333
Y0187333
Y0197333
Y0207333
Y023505
Y024505
Y025505
Y026505
Y0292767
Y0302767
Y0312767
Y0322767
X05768Y0352583
Y0362583
Y0372583
Y0382583
X05769Y04087
Y04187
X03114Y03717
Y03617
Y03517
Y03417
Y03317
Y03217
X03124Y0423076
X03024
X02974Y0433076
X03074
X03174
X03224Y0423076
X05769Y04287
Y04387
T05
X01065Y02775
T06
X05212Y00519
Y00619
Y00719
Y00819
Y00919
X05312
Y00819
Y00719
Y00619
Y00519
X03044Y00327
X02944
X02844
X02744
X02644
Y00227
X02744
X02844
X02944
X03044
X05212Y0142
Y0152
Y0162
Y0172
Y0182
X05312
Y0172
Y0162
Y0152
Y0142
Y02321
X05212
Y02421
Y02521
Y02621
X05312
Y02521
Y02421
Y02721
X05212
Y03222
Y03322
Y03422
Y03522
Y03622
X05312
Y03522
Y03422
Y03322
Y03222
Y04123
X05212
X02551Y03583
Y03483
Y03383
X03704Y04657
X03804
X03904
X04004
X04104
Y04757
X04004
X03904
X03804
X03704
X05212Y04523
Y04423
Y04323
Y04223
X05312
Y04323
Y04423
Y04523
T07
X03885Y01015
X02646Y01031
X02539Y00798
X00177Y0088033
Y00643
Y0111767
Y01355
X03395Y01611
T08
X00202Y03064
Y0319
Y03316
T09
X04313Y00357
X04463
X01271
X01121
X00674
X00524
X01015Y04628
X01165
X01398Y04623
X01548
X01831Y04617
X01981
X02131
X02281
X02431
X02581
T10
X0047426Y0353296
X0059237Y03718
X0035615
T11
X05808Y00267
X00238
Y04781
X05808
T12
X0367339Y0033582
X0384661
X0184061
X0166739
T13
X02899Y0458076
X03299
M30
